<svg xmlns="http://www.w3.org/2000/svg" viewBox="0 0 1200 760" role="img" aria-labelledby="t d"><title id="t">Tyna Systems Backend OS dashboard</title><desc id="d">A premium dashboard preview showing finance, operations, projects, and reporting modules.</desc><defs><linearGradient id="bg" x1="0" x2="1" y1="0" y2="1"><stop offset="0" stop-color="#111827"/><stop offset="0.6" stop-color="#0f766e"/><stop offset="1" stop-color="#d69e2e"/></linearGradient><filter id="s" x="-20%" y="-20%" width="140%" height="140%"><feDropShadow dx="0" dy="28" stdDeviation="30" flood-color="#0f172a" flood-opacity=".3"/></filter></defs><rect width="1200" height="760" rx="48" fill="url(#bg)"/><circle cx="1040" cy="120" r="180" fill="#f4c45f" opacity=".18"/><circle cx="160" cy="660" r="240" fill="#14b8a6" opacity=".14"/><g filter="url(#s)"><rect x="80" y="80" width="1040" height="600" rx="30" fill="#ffffff"/><rect x="80" y="80" width="1040" height="68" rx="30" fill="#0f172a"/><circle cx="125" cy="114" r="9" fill="#ef4444"/><circle cx="156" cy="114" r="9" fill="#f59e0b"/><circle cx="187" cy="114" r="9" fill="#22c55e"/><text x="230" y="121" font-family="Inter,Arial" font-size="20" font-weight="800" fill="#fff">Backend OS Command Center</text><rect x="110" y="178" width="220" height="456" rx="22" fill="#f8fafc"/><rect x="136" y="210" width="150" height="18" rx="9" fill="#0f172a"/><rect x="136" y="252" width="158" height="14" rx="7" fill="#cbd5e1"/><rect x="136" y="292" width="126" height="14" rx="7" fill="#cbd5e1"/><rect x="136" y="332" width="172" height="14" rx="7" fill="#cbd5e1"/><rect x="136" y="402" width="154" height="54" rx="16" fill="#0f766e" opacity=".95"/><rect x="370" y="178" width="200" height="130" rx="22" fill="#fff8e8" stroke="#f2d59b"/><text x="395" y="224" font-family="Inter,Arial" font-size="18" font-weight="800" fill="#92400e">Revenue View</text><text x="395" y="266" font-family="Inter,Arial" font-size="38" font-weight="900" fill="#0f172a">₦20M</text><rect x="600" y="178" width="200" height="130" rx="22" fill="#ecfdf5" stroke="#bbf7d0"/><text x="625" y="224" font-family="Inter,Arial" font-size="18" font-weight="800" fill="#166534">Operations</text><text x="625" y="266" font-family="Inter,Arial" font-size="38" font-weight="900" fill="#0f172a">92%</text><rect x="830" y="178" width="250" height="130" rx="22" fill="#eff6ff" stroke="#bfdbfe"/><text x="855" y="224" font-family="Inter,Arial" font-size="18" font-weight="800" fill="#1d4ed8">Project Status</text><text x="855" y="266" font-family="Inter,Arial" font-size="38" font-weight="900" fill="#0f172a">Live</text><rect x="370" y="342" width="710" height="292" rx="24" fill="#f8fafc" stroke="#e2e8f0"/><polyline points="420,555 500,510 580,530 660,450 740,470 820,390 900,430 1030,360" fill="none" stroke="#d69e2e" stroke-width="16" stroke-linecap="round" stroke-linejoin="round"/><polyline points="420,590 500,565 580,575 660,525 740,540 820,500 900,516 1030,475" fill="none" stroke="#0f766e" stroke-width="12" stroke-linecap="round" stroke-linejoin="round"/><text x="410" y="390" font-family="Inter,Arial" font-size="22" font-weight="900" fill="#0f172a">Finance + Operations + Projects</text><text x="410" y="422" font-family="Inter,Arial" font-size="16" font-weight="700" fill="#64748b">One connected operating system for founder-led teams.</text></g></svg>